<svg width="600" height="600" viewBox="0 0 600 600" fill="none" xmlns="http://www.w3.org/2000/svg">
  <defs>
    <linearGradient id="sky" x1="300" y1="0" x2="300" y2="600" gradientUnits="userSpaceOnUse">
      <stop stop-color="#FFE4C9"/>
      <stop offset="0.32" stop-color="#FFC28D"/>
      <stop offset="0.62" stop-color="#7DA7D9"/>
      <stop offset="1" stop-color="#17345A"/>
    </linearGradient>
    <linearGradient id="water" x1="300" y1="280" x2="300" y2="600" gradientUnits="userSpaceOnUse">
      <stop stop-color="#3F7CAC"/>
      <stop offset="0.56" stop-color="#1C3D66"/>
      <stop offset="1" stop-color="#09162A"/>
    </linearGradient>
    <linearGradient id="sunGlow" x1="452" y1="56" x2="452" y2="208" gradientUnits="userSpaceOnUse">
      <stop stop-color="#FFF6D0"/>
      <stop offset="1" stop-color="#FFD08C"/>
    </linearGradient>
  </defs>
  <rect width="600" height="600" fill="url(#sky)"/>
  <circle cx="452" cy="132" r="76" fill="url(#sunGlow)" opacity="0.94"/>
  <path d="M0 248C48 218 110 214 166 226C214 236 258 260 314 252C366 244 404 208 456 202C514 196 566 218 600 242V600H0V248Z" fill="#B0CAE3" opacity="0.5"/>
  <path d="M0 300C54 284 116 300 182 336C240 366 292 388 350 380C420 370 458 306 516 292C548 284 578 286 600 296V600H0V300Z" fill="url(#water)"/>
  <path d="M0 372C60 350 122 354 186 388C258 426 324 444 392 430C470 412 526 340 600 334V600H0V372Z" fill="#0D2340" opacity="0.58"/>
  <path d="M0 432C92 430 164 454 240 490C318 528 398 546 470 530C520 518 560 490 600 462V600H0V432Z" fill="#06101E" opacity="0.85"/>
  <path d="M0 184C42 174 92 178 126 196C154 210 178 228 206 236C234 244 264 244 296 236C334 226 366 202 396 192C446 174 504 180 550 206C572 218 588 232 600 244V0H0V184Z" fill="#FFD9B0" opacity="0.28"/>
  <path d="M392 286C424 248 456 228 488 224C530 220 564 236 600 274V398C546 388 510 396 472 420C426 448 382 456 330 432L392 286Z" fill="#7F868D" opacity="0.78"/>
  <path d="M310 330L352 292L372 310L338 354L310 330Z" fill="#C86A50" opacity="0.62"/>
  <path d="M48 346H368L354 368H34L48 346Z" fill="#C57552"/>
  <path d="M90 246H118V348H90V246Z" fill="#9C412D"/>
  <path d="M228 220H258V348H228V220Z" fill="#9C412D"/>
  <path d="M89 248L228 220" stroke="#F9C58B" stroke-width="4" stroke-linecap="round"/>
  <path d="M118 248L258 220" stroke="#F9C58B" stroke-width="4" stroke-linecap="round"/>
  <path d="M106 254L48 346" stroke="#F7B67B" stroke-width="3" stroke-linecap="round"/>
  <path d="M130 252L102 346" stroke="#F7B67B" stroke-width="3" stroke-linecap="round"/>
  <path d="M152 248L152 346" stroke="#F7B67B" stroke-width="3" stroke-linecap="round"/>
  <path d="M176 244L198 346" stroke="#F7B67B" stroke-width="3" stroke-linecap="round"/>
  <path d="M202 236L260 346" stroke="#F7B67B" stroke-width="3" stroke-linecap="round"/>
  <path d="M244 226L184 346" stroke="#F7B67B" stroke-width="3" stroke-linecap="round"/>
  <path d="M265 230L296 346" stroke="#F7B67B" stroke-width="3" stroke-linecap="round"/>
  <path d="M86 248H122" stroke="#F9C58B" stroke-width="5" stroke-linecap="round"/>
  <path d="M224 222H262" stroke="#F9C58B" stroke-width="5" stroke-linecap="round"/>
  <path d="M446 102C460 96 470 96 478 106" stroke="#EAA4A4" stroke-width="5" stroke-linecap="round"/>
  <path d="M72 474C108 458 138 456 176 470C208 482 238 506 284 508C330 510 364 488 394 472C434 450 468 446 516 462C552 474 576 494 600 512V600H0V516C24 498 46 486 72 474Z" fill="#090F19"/>
  <path d="M0 470C64 446 126 448 194 482C268 520 338 538 414 522C486 506 542 458 600 438V600H0V470Z" fill="#081221" opacity="0.95"/>
  <circle cx="76" cy="110" r="3" fill="#FFF5E1"/>
  <circle cx="118" cy="86" r="2.8" fill="#FFF5E1"/>
  <circle cx="164" cy="126" r="2.8" fill="#FFF5E1"/>
  <circle cx="252" cy="78" r="3.2" fill="#FFF5E1"/>
  <circle cx="318" cy="116" r="2.8" fill="#FFF5E1"/>
</svg>
